<?xml version="1.0" encoding="UTF-8"?>
<svg width="210mm" height="297mm" version="1.1" viewBox="0 0 210 297" xmlns="http://www.w3.org/2000/svg" xmlnsCc="http://creativecommons.org/ns#" xmlnsDc="http://purl.org/dc/elements/1.1/" xmlnsRdf="http://www.w3.org/1999/02/22-rdf-syntax-ns#">
 <metadata>
  <rdfRDF>
   <ccWork rdfAbout="">
    <dcFormat>image/svg+xml</dcFormat>
    <dcType rdfResource="http://purl.org/dc/dcmitype/StillImage"/>
    <dcTitle/>
   </ccWork>
  </rdfRDF>
 </metadata>
 <g transform="translate(-3.9809 -2.0436)">
  <g transform="matrix(.16468 0 0 .16468 13.276 37.878)" fill="none" stroke="#000" stroke-width="6.0723">
   <path d="m1023.5 676.9c0.7 0.2 2.1 0.6 2 0.7-0.3 2.6-0.8 5.2-1.4 8.5 4.8-1.1 8.9-2.1 13.3-3.2 0.4 1.8 0.7 3.3 1 5.1 1.3 0.1 2.5 0.2 4.4 0.4-2.4 4.1-4.7 7.9-7.5 12.6 5.5-1.2 10.1-2.3 14.8-3.3-0.8 7.1-10.4 12.2-17.9 9.4-4.2-1.5-8.2-3.6-12.2-5.8-25.6-14.2-52.2-26.1-80.8-32.6-26.8-6-53.7-8.2-80.6-0.6-20.7 5.8-34.8 18.9-42.6 38.9-4.3 11.2-3.3 21.5 5 30.7 2.2 2.4 4.1 5.1 6.9 8.6-9.4 0.9-16.6-3.3-24.8-5.9 2 6.1 3.8 11.4 5.6 16.7-0.2 0.1-0.4 0.3-0.6 0.4-3.4-3.6-6.8-7.2-11.2-12-2.6 22.4-18.3 34.8-30.9 49.5 0.7-5.8 1.5-11.7 2.4-19-13.5 14.2-27.5 25.3-45.6 32.1 0.8-2.5 1.3-4 2.1-6.8-42.3 26.4-87.5 42.7-136.7 50.9 57-51.7 98.8-112.6 121.7-186.4 1.8 1.5 2.7 2.3 4 3.5 10.3-21.1 18.8-42.3 13.5-66.3-2.2-10.1-4.2-20.2-6.3-30.3-0.4-1.9-0.7-3.9-1.1-6.2 5.6-0.3 10.8-0.6 17.4-1-2.9-4-5-6.8-6.9-9.6-5.6-8.5-11.1-17-16.6-25.5-1.6-2.4-1.5-4.2 0.9-6.4 4.3-4 8.2-8.6 12.1-13.5-7.6 1.1-14.8 1.2-23.1-2.9 3.8-2.1 6.5-3.3 8.8-5 4.1-3.1 8.1-6.4 12-9.8 7.9-6.8 16.5-11.8 27.3-12.1 1.1 0 2.3-0.4 3.9-0.8-4.1-6.1-10.9-4.2-17.4-6.8 8.7-4 15.8-9.3 25.5-5.7-7-12.8-8.4-18.1-6.2-24.8 3 1.4 5.8 3 8.8 4.3 14 5.7 28.5 9.1 43.6 10.1 3.3 0.2 6.6 0.6 9.9 1 7 0.7 9.1 3.2 9.1 10.8-1.2-0.4-2.4-0.8-4.8-1.6 1.5 5.5 3 9.8 3.8 14.3 1.2 6.6 6.3 11.1 7.7 17.9 1.7 8.7 15.1 16 24.7 14.7-8.6-3.5-16.2-7.1-21.3-15.2 1.8 0.4 3 0.7 5.6 1.2-8.8-8-13.4-16.9-16.3-26.7-0.4-1.4 0.5-3.2 0.8-4.9 2.5 3 5 5.9 7.5 8.9-14.6-26.5-14.3-53.1-2.3-81.5 15.5 20.7 35.2 34.3 57.7 44.8-3.1 0.4-6.2 0.7-9.3 1.1 29.1 4 56.8 9.9 71.5 39.8-0.9-3-1.7-6-2.8-9.8 1.7 0.8 2.7 0.9 3.4 1.5 13.1 11.3 26.4 22.4 39.2 34 7.9 7.2 12.2 16.6 13.6 27.2 1.4 10.4 3 20.8 4.2 31.2 1 9 4.2 17.1 9.8 24.2 2 2.5 4.6 5.1 7.5 6.4 4.8 2 7.5 5.4 8.6 10.1 0.4 1.6-0.2 3.5-0.4 5.4 3.6 1.7 9.5 3 13 6.6 3.6 3.7 4.9 9.7 7 14.7 0.2 0.6-1.2 1.8-1.9 2.8-0.1-0.1 0.1 0.4 0.4 0.4 9.2 1.3 14.2 7.3 18.2 15.2 2.5 5 6.1 9.5 9.4 14 2.6 3.4 3.1 6.8 1.3 10.7-5.3 11.5-18.6 21.9-32.4 24.6 1.2-2.4 2.2-4.3 3.5-7.1-5.8 1.7-11.1 3.2-17.7 5.2 3.2-5.4 5.8-9.8 9-15.3-3 1.4-4.7 2.3-6.9 3.3-0.2-2.5-0.4-4.7-0.7-7.3-4.2 1.4-8.1 2.7-12.9 4.2 0.5-3.5 0.9-6.5 1.4-9.5-0.3-0.2-0.6-0.5-0.9-0.7-1.4 1.1-2.6 2.2-3.8 3.3-1.5-4.6-3-9.2-4.5-14-3.9 2.2-7.6 4.3-10.4 5.9v-13.3c-6.1 2.6-11 4.6-15.8 6.6 5.2 0.8 10.1-4.8 15.2 0.7-1.2 3.3-2.5 6.7-4.2 11.4 5.5-3.5 9.9-6.3 14.8-9.4 0.5 3.4 1.2 6.2 1.2 8.9 0 2.9 1.7 3.2 3.7 3.2zm-31.3-109.6c0.2-0.4 0.5-0.8 0.7-1.2-19.4-12.9-30.5-32.9-44.4-50.5 4.4 15.1 9.1 29.9 13.8 44.8 0.3 1 1.3 2.3 2.1 2.4 9.2 1.6 18.5 3.1 27.8 4.5zm8.2-22.1c-0.3-1.3-0.2-3.9-1.3-5.8-3.9-6.5-7.7-13.2-12.5-19-3.4-4.2-7.3-3.1-8.1 1.1-1.7 9.5 6.7 24.9 15.7 28.6 4.8 2 6.3 1 6.2-4.9zm-134.2 78.8c0.2 0.5 0.5 1.1 0.7 1.6-8.3 4.6-14.8 10.7-16.8 18.9 7.1-6.2 15-13.1 23-20.1-6.2-3-12.6-2.2-19.7 1.5 3.4-6.6 9.2-7.9 14.6-9.5-6.9-5.6-13.7-10.6-19.9-16.3-6.3-5.9-9.6-13.6-12.5-22.8 3.9 1.2 6.7 2.1 9.6 2.9 0.2-0.6 0.4-1.3 0.6-1.9-3.9-1.4-7.9-2.7-12.4-4.3 3.7 18.5 13.1 32.2 30.3 40.5-9.2 3.9-13.1 8.4-13 13.7 5-1.5 10.3-2.8 15.5-4.2zm-25.7-51.5c-3.6-8-6.2-16.2-5.5-25.4 6.5 0 12.6 0.2 18.7-0.1s12.1-1.4 16.2-4.5c-11.3 0.6-23.7 1.2-36.5 1.9-0.6 9.7 0.9 19.5 7.1 28.1zm127.2 61h-10.7c2.9 0.8 5.1 1.4 7.5 2.1-0.6 5.3-1.1 10.3-1.7 15.9 5-1.7 9.2-3.1 13.4-4.5 3.9-1.3 6.6 0.5 6.9 4.6 0.1 0.9-0.1 1.9-0.1 2.8 2 0.6 3.8 1.2 5.6 1.7 0.2-0.5 0.4-0.9 0.5-1.4-1.4-0.6-2.7-1.1-3.6-1.5-0.8-3.4-1.5-6.6-2.3-10.2-6 2.1-11.7 4.1-18.1 6.3 0.9-5.7 1.8-10.5 2.6-15.8z"/>
   <path d="m122 689c0.9 2.2 1.9 4.5 3.2 7.4-5.9-1.7-11.2-3.2-17.3-5 1.5 2.7 2.5 4.7 3.7 6.9-12.5-0.9-30.1-14.8-32.9-26.3-0.6-2.5 0.5-5.9 1.8-8.3 3.8-6.5 8.5-12.4 12.1-18.9 2.9-5.2 6.6-8.6 12.5-9.7 1.3-0.2 2.5-0.8 2.9-1-0.4-1.9-1.3-3.6-0.9-4.8 1.8-4.6 3.8-9.2 6.4-13.5 0.9-1.6 3.3-2.7 5.2-3.4 2.9-1.1 6.1-1.7 9.2-2.5-3.2-2.8-1.9-11.3 2.7-13.4 15.3-7.2 19.8-20.5 21.7-35.7 1.3-10.2 2.8-20.5 4.4-30.7 1.3-8.7 4.7-16.7 11-22.6 13.7-12.7 27.9-24.7 42-36.9 0.5-0.4 1.2-0.5 2.7-1.1-1.1 3.8-1.9 6.8-2.8 9.9 14.7-29.8 42.3-35.9 72.8-39.5-2.8-0.5-4.3-0.9-5.9-1.1-1.6-0.1-3.1 0-4.9-0.6 22.5-10.3 42.3-23.8 57.4-44.1 7.3 13.3 9.4 26.7 8.9 40.8-0.5 13.8-2.9 27-11.6 38.5 0.4 0.2 0.9 0.4 1.3 0.6 2.6-2.4 5.3-4.7 8-7.2 0.8 6-4.3 16-15.6 30.8 1.6-0.3 2.7-0.5 4.5-0.9-5 8.1-12.7 11.5-21.4 15.1 10.1 0.9 22-5.1 24.6-14.2 2.1-7.6 7.6-13.5 8.9-21.3 0.6-3.5 1.6-7 2.5-11.2-2.1 0.3-3.4 0.5-5.1 0.8 0.9-2.7 1.3-5.3 2.6-7.3 0.9-1.4 2.9-2.6 4.6-2.8 6.3-0.9 12.6-1.4 18.9-2.1 15.6-1.6 30.4-5.5 44.2-13.1 0.5-0.3 1.2-0.3 2.4-0.6 1.5 9.4-1.7 17.1-7.5 25 10.2-3.6 17.4 1.4 25.9 5.4-6.4 1.8-11.7 3.4-17 4.9 0.1 0.7 0.2 1.4 0.2 2.1 1.7 0.3 3.3 0.8 5 0.9 9.1 0.4 16.6 4.4 23.5 9.9 7.1 5.7 14.3 11.2 21.8 17.1-6.8 4.1-14.1 3.3-22.8 1.9 4.8 5.2 8.3 9.6 12.5 13.3 3.3 2.9 3.1 5.2 1 8.4-5.8 8.5-11.4 17.2-17.1 25.8-1.5 2.3-3.1 4.6-5.5 8.2 6.4 0.4 11.5 0.7 17.2 1-1.9 9.1-3.2 18-5.6 26.6-7.3 25.9-1.6 49.8 10 72.9 0.5 1 1.2 2 2.7 4.3 0.7-1.8 1.2-3 1.7-4.2 0.5 0 1 0.1 1.5 0.1 22.9 73.4 64.6 134.3 121.6 186-49.1-8.1-94.3-24.4-136.9-51.1 1 2.7 1.6 4.3 2.5 7-18.2-6.7-32.2-17.8-45.7-32 0.9 7.1 1.6 12.9 2.3 18.8-12.5-14.4-28-26.8-30.6-47.5l-1.5-1.2c-3.1 3.7-6.1 7.4-9.2 11.1-0.4-0.2-0.8-0.5-1.2-0.7 1.7-5.1 3.4-10.2 5.1-15.4-7.8 2.2-15.3 4.4-22.8 6.5-0.4-0.6-0.7-1.2-1.1-1.8 1.6-2.1 3.1-4.5 4.9-6.4 10.2-10.7 10.8-22.6 5-35.5-9.5-21.2-26.1-33-48.5-37.5-31.3-6.3-61.7-2-91.7 7.4-20.7 6.5-40.5 15.4-59.5 25.9-3.5 1.9-7.2 3.5-10.6 5.6-5.7 3.4-11.2 3-17.2 0.5-3.5-1.5-5.5-3.5-5.7-8 4.7 1 9.3 2.1 13.8 3.1 0.3-0.3 0.6-0.6 0.9-0.8-2.1-2.9-4.3-5.7-6.4-8.6-1.1-3.6 2.1-2.9 3.7-3.3 0.3-1.8 0.6-3.3 0.9-5 4.5 1.1 8.7 2.1 13.3 3.2-0.6-3.8-1.1-6.9-1.6-10.3 2.3 0.4 3.8 0.6 5.5 0.9 0.6-3.9 1.1-7.5 1.8-11.7 4.9 3 9.4 5.7 14.4 8.8-1.5-4.9-2.8-8.9-4-12.8 4.3 0.5 8.7 1 13 1.5 0.9 0.1 1.8 0.4 2.8 0.7 0.1-0.3 0.2-0.5 0.3-0.8-5.1-2.1-10.2-4.2-16-6.6v5.3c-0.6-0.2-1.2-0.4-2.3-0.9 1.2 3.3 2.2 6 3.7 9.9-4.8-2.8-8.5-5.1-12.7-7.5-1 4.8-1.8 8.8-2.7 13-2.1-0.6-3.8-1.2-6-1.8 0.5 3.4 0.9 6.4 1.4 10.1-4.6-1.5-8.7-2.9-13-4.3-0.2 2.7-0.4 4.8-0.6 7.3-2.3-1-4.1-1.8-5.9-2.6-0.2 0.3-0.4 0.5-0.6 0.8 1.8 2 3.4 4 4.9 6.1zm49.1-124.9c0.2 0.4 0.5 0.7 0.7 1.1 8-1.2 15.9-2.8 23.9-3.6 4.4-0.5 6.1-2.5 7.3-6.5 3.4-11.6 7.3-23.1 11-34.7 0.7-2.2 1.3-4.5 2-6.8-14.3 17.7-25.6 37.6-44.9 50.5zm14.8-42.9c-0.4-1.1-0.6-4.2-1.9-4.7-1.7-0.6-4.8 0.1-6.2 1.4-7.1 6.7-12.9 14.3-13.9 24.5-0.2 2 0.6 4.1 1 6.1 2.2-0.4 4.8-0.3 6.5-1.4 8.8-5.8 13.3-14.3 14.5-25.9zm105.1 101c8 7 15.9 13.9 23.9 20.9-2.3-3.8-4.2-8.1-7.1-11.5s-6.8-5.8-10.3-8.7c0.2-0.4 0.3-0.9 0.5-1.3 5.3 1.5 10.5 2.9 16.2 4.5-1.9-7.1-6.3-11.5-14.1-13.8 17.7-8.5 26.9-22.2 30.6-40.5-10.9 3.5-10.9 3.5-11.9 6.3 3-1 5.9-1.9 9.2-3-4.3 19-17.8 29.1-33.2 39 6.7 1.4 12 3 15.6 9.4-6.9-3.4-13.3-4.5-19.4-1.3zm39.8-80c-12.8-0.6-24.9-1.2-36.5-1.7 10.2 6.4 22.6 4.4 34.9 4.2 0.6 9.5-2.2 17.7-5.7 25.8 6.3-8.6 7.7-18.5 7.3-28.3zm-149.8 110c-0.3-7.5 1.9-9.2 8.3-6.9 3.7 1.3 7.5 2.6 11.8 4.1-0.5-5.8-1-10.8-1.5-16 2.4-0.7 4.5-1.3 6.9-2h-10.2c0.9 5.3 1.7 10.2 2.6 15.7-6.6-2.3-12.4-4.3-18.2-6.3-0.9 3.8-1.5 6.9-2.2 9.9-1 0.5-2.4 1.3-3.8 2 0.2 0.4 0.4 0.8 0.6 1.3 1.9-0.6 3.7-1.2 5.7-1.8z"/>
   <path d="m500.3 737.9c-0.3 2.4-0.5 3.6-0.8 6.1-24-31.3-43-63.3-40.4-103.9-0.5-0.1-0.9-0.2-1.4-0.2-1.8 5.2-3.7 10.4-5.7 16.2-4.9-16.2-9.6-32.4-7.8-49.1 1.8-16.3 5.6-32.3 8.5-48.3-2.7-0.2-6.7-0.4-12.1-0.8 23.7-38.7 47.3-75.9 51.5-121.3 0.4 0 0.9-0.1 1.3-0.1 3.1 6 6.8 11.7 9.2 18 11.6 29.6 22.9 59.3 34.4 89 2.5 6.4 5 12.7 7.4 19.1 2.3 6 6.7 9.5 13 10.2 17.6 2 35.2 2.2 52.8-0.2 9.8-1.4 15.6-6.7 19.1-16.5 13.9-38.7 28.5-77.1 42.9-115.6 0.2-0.6 0.6-1.2 1.3-2.3 12.4 41.2 20.5 83.6 49.4 118.8-3.3-0.3-5.7-0.2-7.9-0.7-2.4-0.5-4.7-1.5-8.2-2.6 8.3 16.4 13.6 32.6 14.8 50s-2.9 33.8-10.2 49.6c-1-5.6-2.1-11.2-3.1-16.8 1.7 39.7-16.3 71.2-40.3 101.6-0.8-2.3-1.1-3.2-1.5-4.4-10.4 21.4-21.8 42-36.8 60.1-14.9 17.9-30.8 35-46.6 52.8-32.8-32.7-62.9-66.1-82.8-108.7z"/>
   <path d="m471.2 386.9c2.7 2.1 5.4 4.1 8.1 6.2-7.9-16.8-8.1-34.1-6.6-52.9 2.9 2.8 5.1 4.8 7.6 7.1-1.9-6.9-4-13.1-5.2-19.4-2.8-15-2-29.9 1.9-44.6 7.8-29.2 21.2-56.3 33.2-85.2 1.4 2.4 2.3 3.8 3.1 5.3 11.6 20.8 22.9 41.8 34.8 62.4 4.1 7.2 9 14.1 14.5 20.3 13.7 15.4 32.4 14.4 43-3.1 14.6-24.1 27.8-48.9 41.5-73.5 1.9-3.4 3.7-7 5.9-11 1 1.2 1.7 1.9 2.1 2.7 10.2 22.2 21.3 44.1 30.3 66.8 9 22.6 11.1 46.2 3.7 70l-1.5 4.8c-0.5 1.4-1 2.7-0.9 4.5 2-2.5 4-4.9 6.5-8.1 4.5 19.6 1 37.2-7.9 54.2 0.5 0.2 1 0.5 1.5 0.7 3.4-3.7 6.7-7.3 10.1-11 0.5 0.3 1.1 0.6 1.6 0.9-2.3 6.5-3.3 14-7.3 19.3-17 22.7-26.1 49-36.5 74.8-10 24.9-19.4 50-28.4 75.2-3.2 9-8.2 13.9-17.9 15.3-16.3 2.3-32.6 1.7-48.8 0.1-7-0.7-11.6-4.6-13.9-11.2-5.2-14.4-10.1-29-15.7-43.2-9.8-24.6-19.7-49.1-30.4-73.3-4-9-9.8-17.4-15.5-25.6-6-8.7-10.3-18-13.9-27.8 0.3-0.3 0.6-0.5 1-0.7zm44.2-5c17.9 20.7 36.2 41 46.8 67-0.1-11.3-0.7-22.4-1.5-33.4-0.1-1.2-1.3-2.7-2.4-3.4-14.3-10.2-28.6-20.2-42.9-30.2zm90.9 66.6c11.3-25.4 27.2-46.9 46.7-65.9-15.2 9.9-29.9 20.2-44.5 30.7-1.1 0.7-2.1 2.4-2.1 3.6-0.2 10.2-0.1 20.4-0.1 31.6zm42.9-219.9c-0.5-0.1-1.1-0.2-1.6-0.3-1.7 9.6-3.7 19.2-5 28.9-2.5 18.8-3 37.6 1.6 56.1 1.1 4.6 3.5 8.9 5.3 13.3 0.5-0.2 1-0.4 1.6-0.6-4.7-32.4-7.4-64.8-1.9-97.4zm-133.1 9.6c4.6 28.6 3 56.9-2.7 85.1 14.5-27.9 13-56.4 2.7-85.1zm103.3 127.7c-12.4 3.3-22.7 24-16.4 32.3 9.4-5.3 17.7-21.6 16.4-32.3zm-70.4 0.1c-1.3 12.5 8.2 29.1 17.6 31.4 1.3-10.4-8-27.4-17.6-31.4z"/>
  </g>
  <text transform="matrix(.26458 0 0 .26458 -53.764 -9.2037)" fill="#000000" font-family="sans-serif" font-size="40px" style="line-height:1.25;shape-inside:url(#rect2881);white-space:pre" xmlSpace="preserve"/>
 </g>
</svg>
